<?xml version="1.0" encoding="UTF-8"?>
<svg version="1.1" xmlns="http://www.w3.org/2000/svg" width="499" height="500">
<path d="M0 0 C1.16499023 0.16894775 1.16499023 0.16894775 2.35351562 0.34130859 C14.31530153 2.12279452 25.72838164 5.99964486 37.1875 9.75 C37.94891296 9.99603973 38.71032593 10.24207947 39.49481201 10.49557495 C50.5407934 14.08869714 60.7466672 18.55195191 71 24 C71.86858643 24.45004395 72.73717285 24.90008789 73.63208008 25.36376953 C82.63440209 30.0612413 91.22202721 35.30145039 99.625 41 C100.87953979 41.84630981 100.87953979 41.84630981 102.15942383 42.7097168 C103.30640747 43.50309448 103.30640747 43.50309448 104.4765625 44.3125 C105.15799316 44.78300781 105.83942383 45.25351562 106.54150391 45.73828125 C107.02280762 46.15464844 107.50411133 46.57101563 108 47 C108 47.66 108 48.32 108 49 C108.58168945 49.27400635 109.16337891 49.5480127 109.76269531 49.83032227 C116.335312 53.26652988 121.8875658 58.50739331 127.25 63.5625 C128.21824707 64.47322266 128.21824707 64.47322266 129.20605469 65.40234375 C139.27290929 74.96808829 148.34109167 85.19783916 156.70166016 96.28222656 C157.92733539 97.90386081 159.17208654 99.51102594 160.41796875 101.1171875 C172.89838798 117.77131952 182.66428251 136.56078685 190 156 C190.4007373 157.03350586 190.4007373 157.03350586 190.80957031 158.08789062 C194.14100757 166.72251593 196.80157111 175.49732781 199.1875 184.4375 C199.42549316 185.31760742 199.66348633 186.19771484 199.90869141 187.10449219 C200.66976053 190.05810173 201.34603708 193.02081063 202 196 C202.27215332 197.18489014 202.54430664 198.36978027 202.82470703 199.59057617 C205.74992258 213.5937063 205.52761039 227.83517832 205.50097656 242.07299805 C205.49628629 244.96697814 205.51000556 247.85985668 205.54199219 250.75366211 C205.98724707 291.53052354 197.23840778 335.21516087 175.14013672 370.19189453 C173.91055503 372.14184785 172.72186801 374.1135354 171.53515625 376.08984375 C163.50251624 389.35130703 154.10817272 401.27948071 144 413 C143.11054687 414.05960937 143.11054687 414.05960937 142.203125 415.140625 C133.76448889 425.08317646 124.39339238 434.13357253 114 442 C112.69681043 443.01811685 111.39482873 444.03778078 110.09375 445.05859375 C98.76549848 453.90163816 87.36992143 462.20199349 74.33691406 468.38525391 C71.41387539 469.79972404 68.5380826 471.28477991 65.66029358 472.78825378 C56.55686059 477.48906407 47.29166197 481.01717372 37.5625 484.1875 C36.78806549 484.44391266 36.01363098 484.70032532 35.21572876 484.96450806 C21.65820618 489.43752859 8.12644425 492.81330788 -6 495 C-6.71849121 495.12068848 -7.43698242 495.24137695 -8.17724609 495.36572266 C-9.77810979 495.62314186 -11.38864869 495.81951126 -13 496 C-14 495 -14 495 -14.12304783 492.19076443 C-14.12212604 490.92329907 -14.12120424 489.65583372 -14.12025452 488.34996033 C-14.12153615 487.29512218 -14.12153615 487.29512218 -14.12284368 486.21897417 C-14.12450053 483.84509484 -14.1189738 481.47128502 -14.11352539 479.09741211 C-14.11324354 477.40270489 -14.11340122 475.70799755 -14.1139679 474.01329041 C-14.11425594 469.39778374 -14.10835809 464.78230283 -14.10139394 460.16680217 C-14.09516156 455.34879736 -14.09455669 450.53079203 -14.09336853 445.71278381 C-14.09025487 436.58257502 -14.08204102 427.45237814 -14.07201904 418.32217461 C-14.06085898 407.93057324 -14.05534772 397.53897132 -14.05032361 387.14736545 C-14.03985843 365.76490217 -14.02151252 344.38245522 -14 323 C8.11 323 30.22 323 53 323 C56.33322411 305.00058981 59.62091139 286.99885386 62.78125 268.96923828 C63.29491293 266.04164286 63.81133067 263.11454402 64.328125 260.1875 C64.48226868 259.30336426 64.63641235 258.41922852 64.79522705 257.50830078 C64.93917908 256.69474121 65.0831311 255.88118164 65.23144531 255.04296875 C65.35626282 254.33164795 65.48108032 253.62032715 65.60968018 252.88745117 C66 251 66 251 67 248 C40.27 248 13.54 248 -14 248 C-14.0928125 238.2546875 -14.0928125 238.2546875 -14.1875 228.3125 C-14.21481201 226.29036377 -14.24212402 224.26822754 -14.27026367 222.18481445 C-14.34815644 212.34239655 -13.97495839 203.46252902 -11 194 C-10.78512939 193.29786377 -10.57025879 192.59572754 -10.34887695 191.87231445 C-9.8086469 190.2290131 -9.18966636 188.61212599 -8.5625 187 C-8.17191406 185.96875 -7.78132813 184.9375 -7.37890625 183.875 C-3.36538299 175.50686086 3.83439618 171.05481376 12.25 167.75 C25.09797818 163.59042338 37.97136344 163.74833122 51.3125 163.875 C57.479375 163.91625 63.64625 163.9575 70 164 C70.33 141.56 70.66 119.12 71 96 C3.32404326 88.17338317 3.32404326 88.17338317 -59.83203125 109.7421875 C-62 111 -62 111 -64 111 C-64 111.66 -64 112.32 -64 113 C-68.47058824 117 -68.47058824 117 -71 117 C-71 117.66 -71 118.32 -71 119 C-71.73605469 119.58136719 -72.47210938 120.16273437 -73.23046875 120.76171875 C-78.29720248 124.85655433 -81.5452786 130.54194903 -85 136 C-85.36061523 136.5662207 -85.72123047 137.13244141 -86.09277344 137.71582031 C-90.83332535 145.34192556 -93.91848116 153.10042132 -96.3125 161.75 C-96.54283936 162.58136475 -96.77317871 163.41272949 -97.01049805 164.26928711 C-97.75479013 167.16697325 -98.39318371 170.07025604 -99 173 C-99.13104126 173.62340271 -99.26208252 174.24680542 -99.39709473 174.88909912 C-102.47746699 190.05278733 -102.51650692 205.20291017 -102.625 220.625 C-102.66153534 224.41025393 -102.70199535 228.19540538 -102.74765015 231.9805603 C-102.77483432 234.31645598 -102.79620394 236.65242804 -102.81118774 238.98843384 C-102.82144989 240.02817352 -102.83171204 241.06791321 -102.84228516 242.13916016 C-102.84878082 243.05670074 -102.85527649 243.97424133 -102.86196899 244.91958618 C-103 247 -103 247 -104 248 C-105.59610982 248.09333705 -107.19633428 248.11745372 -108.79516602 248.11352539 C-109.83048462 248.11340454 -110.86580322 248.11328369 -111.93249512 248.11315918 C-113.02856079 248.10804321 -114.12462646 248.10292725 -115.25390625 248.09765625 C-116.75624817 248.09614563 -116.75624817 248.09614563 -118.28894043 248.09460449 C-122.04680519 248.08935429 -125.80465369 248.07539317 -129.5625 248.0625 C-137.956875 248.041875 -146.35125 248.02125 -155 248 C-155 272.75 -155 297.5 -155 323 C-138.26084826 322.96039063 -138.26084826 322.96039063 -121.52172852 322.90991211 C-119.43245494 322.90699314 -117.34318081 322.90444454 -115.25390625 322.90234375 C-114.15784058 322.89722778 -113.0617749 322.89211182 -111.93249512 322.88684082 C-110.89717651 322.88671997 -109.86185791 322.88659912 -108.79516602 322.88647461 C-107.89137711 322.884254 -106.9875882 322.88203339 -106.05641174 322.87974548 C-104 323 -104 323 -103 324 C-102.90309593 326.12626798 -102.87813178 328.25581819 -102.87974548 330.3842926 C-102.87846385 331.39625345 -102.87846385 331.39625345 -102.87715632 332.42865795 C-102.87549961 334.70580162 -102.88102596 336.9828728 -102.88647461 339.26000977 C-102.88675647 340.88575234 -102.88659878 342.51149505 -102.8860321 344.13723755 C-102.88574407 348.56473413 -102.89164173 352.99220387 -102.89860606 357.41969419 C-102.90483864 362.04150842 -102.90544332 366.6633232 -102.90663147 371.28514099 C-102.90974507 380.04348237 -102.91795885 388.80181133 -102.92798096 397.56014723 C-102.9391412 407.52854013 -102.94465232 417.49693361 -102.94967639 427.4653312 C-102.96014144 447.97689441 -102.97774143 468.48844642 -103 489 C-107.35272351 490.35355992 -110.51252555 489.17227794 -114.703125 487.75390625 C-115.45857605 487.50511215 -116.2140271 487.25631805 -116.99237061 486.99998474 C-118.59789182 486.46786106 -120.2016405 485.9303639 -121.80371094 485.38793945 C-124.19471554 484.58115437 -126.5925302 483.79818655 -128.9921875 483.01757812 C-139.50312973 479.53559734 -149.23471181 475.20377781 -159 470 C-160.00184326 469.47760742 -161.00368652 468.95521484 -162.03588867 468.41699219 C-178.09523327 459.99669578 -192.58433467 449.58853735 -206.52734375 438.04296875 C-208.25963302 436.61170921 -210.02622529 435.22143518 -211.81640625 433.86328125 C-212.89728516 432.94095703 -212.89728516 432.94095703 -214 432 C-214 431.34 -214 430.68 -214 430 C-214.66 430 -215.32 430 -216 430 C-216 429.34 -216 428.68 -216 428 C-216.8971875 427.5978125 -216.8971875 427.5978125 -217.8125 427.1875 C-219.99847854 426.00082594 -221.41332594 424.90400887 -223 423 C-223 422.34 -223 421.68 -223 421 C-223.66 421 -224.32 421 -225 421 C-225 420.34 -225 419.68 -225 419 C-225.66 419 -226.32 419 -227 419 C-227 418.34 -227 417.68 -227 417 C-227.66 417 -228.32 417 -229 417 C-232.22658686 413.53002835 -235.07270424 409.72412731 -238 406 C-239.22009766 404.46666016 -239.22009766 404.46666016 -240.46484375 402.90234375 C-265.70164456 370.90140041 -284.5449263 332.51176033 -291 292 C-291.14373047 291.16952148 -291.28746094 290.33904297 -291.43554688 289.48339844 C-297.22166669 255.02742746 -295.79396266 217.78645445 -287 184 C-286.66871094 182.72511719 -286.33742188 181.45023438 -285.99609375 180.13671875 C-284.3805527 174.23841007 -282.55935947 168.54692251 -280.171875 162.91796875 C-279.23175052 160.57705879 -278.38779288 158.25009244 -277.578125 155.86328125 C-273.31523811 143.44120789 -267.68017193 132.29138847 -261 121 C-260.35925537 119.90679443 -260.35925537 119.90679443 -259.70556641 118.79150391 C-254.21966044 109.49528547 -248.11256729 100.92641017 -241.28417969 92.57226562 C-239.33709835 90.18838657 -237.42021108 87.78053916 -235.5 85.375 C-234.8915625 84.61960937 -234.283125 83.86421875 -233.65625 83.0859375 C-232.52917986 81.66646708 -231.44668142 80.21070732 -230.40625 78.7265625 C-229.9421875 78.15679687 -229.478125 77.58703125 -229 77 C-228.34 77 -227.68 77 -227 77 C-227 76.34 -227 75.68 -227 75 C-226.34 75 -225.68 75 -225 75 C-225 74.34 -225 73.68 -225 73 C-224.34 73 -223.68 73 -223 73 C-223 72.34 -223 71.68 -223 71 C-222.34 71 -221.68 71 -221 71 C-220.505 69.515 -220.505 69.515 -220 68 C-219.34 68 -218.68 68 -218 68 C-218 67.34 -218 66.68 -218 66 C-217.34 66 -216.68 66 -216 66 C-216 65.34 -216 64.68 -216 64 C-215.34 64 -214.68 64 -214 64 C-214 63.34 -214 62.68 -214 62 C-211.99479807 60.27211323 -209.98135221 58.65934456 -207.875 57.0625 C-206.58170731 56.06812951 -205.28874767 55.07332573 -203.99609375 54.078125 C-203.33077637 53.56830078 -202.66545898 53.05847656 -201.97998047 52.53320312 C-200.10424568 51.08072292 -198.25340415 49.60276842 -196.41015625 48.109375 C-188.94146222 42.07515606 -181.28646524 36.88240088 -173 32 C-171.82599802 31.26641384 -170.65417242 30.52933496 -169.484375 29.7890625 C-119.95263839 -1.30978261 -57.00960229 -9.11286727 0 0 Z " fill="#0865FD" transform="translate(294,3)"/>
<path d="M0 0 C1.35568336 0.00333092 1.35568336 0.00333092 2.73875427 0.00672913 C3.75973709 0.00680466 4.78071991 0.00688019 5.8326416 0.00695801 C6.94304306 0.01211929 8.05344452 0.01728058 9.19749451 0.02259827 C10.89336952 0.02472069 10.89336952 0.02472069 12.62350464 0.02688599 C16.25105891 0.03250433 19.8785525 0.04505994 23.50608826 0.05775452 C25.95856133 0.06276715 28.41103536 0.06733047 30.86351013 0.07142639 C36.89022371 0.08247971 42.91690165 0.09923568 48.94358826 0.12025452 C49.43858826 1.11025452 49.43858826 1.11025452 49.94358826 2.12025452 C33.11358826 2.12025452 16.28358826 2.12025452 -1.05641174 2.12025452 C-1.05641174 26.87025452 -1.05641174 51.62025452 -1.05641174 77.12025452 C15.68274 77.08064515 15.68274 77.08064515 32.42185974 77.03016663 C34.51113331 77.02724765 36.60040745 77.02469905 38.68968201 77.02259827 C39.78574768 77.0174823 40.88181335 77.01236633 42.01109314 77.00709534 C43.04641174 77.00697449 44.08173035 77.00685364 45.14842224 77.00672913 C46.05221115 77.00450851 46.95600006 77.0022879 47.88717651 77 C49.94358826 77.12025452 49.94358826 77.12025452 50.94358826 78.12025452 C51.04049233 80.24652249 51.06545648 82.37607271 51.06384277 84.50454712 C51.0646972 85.17918768 51.06555162 85.85382825 51.06643194 86.54891247 C51.06808865 88.82605613 51.06256229 91.10312732 51.05711365 93.38026428 C51.05683179 95.00600686 51.05698948 96.63174956 51.05755615 98.25749207 C51.05784419 102.68498865 51.05194652 107.11245838 51.04498219 111.5399487 C51.03874962 116.16176294 51.03814494 120.78357772 51.03695679 125.40539551 C51.03384319 134.16373688 51.02562941 142.92206584 51.0156073 151.68040174 C51.00444705 161.64879464 50.99893593 171.61718812 50.99391186 181.58558571 C50.98344682 202.09714892 50.96584682 222.60870094 50.94358826 243.12025452 C47.29478055 244.17425731 45.37379164 243.89072889 41.74046326 242.68666077 C40.76077576 242.3676178 39.78108826 242.04857483 38.77171326 241.71986389 C37.75593201 241.3776178 36.74015076 241.0353717 35.69358826 240.68275452 C34.14671326 240.17518616 34.14671326 240.17518616 32.56858826 239.65736389 C30.02372165 238.82085681 27.48241752 237.9748754 24.94358826 237.12025452 C24.94358826 236.79025452 24.94358826 236.46025452 24.94358826 236.12025452 C27.91358826 235.79025452 30.88358826 235.46025452 33.94358826 235.12025452 C32.95358826 234.13025452 32.95358826 234.13025452 31.94358826 233.12025452 C33.26358826 233.45025452 34.58358826 233.78025452 35.94358826 234.12025452 C35.94358826 235.44025452 35.94358826 236.76025452 35.94358826 238.12025452 C39.90358826 238.78025452 43.86358826 239.44025452 47.94358826 240.12025452 C47.61358826 186.99025452 47.28358826 133.86025452 46.94358826 79.12025452 C30.77358826 79.12025452 14.60358826 79.12025452 -2.05641174 79.12025452 C-3.53382957 76.16541887 -3.19514718 73.171434 -3.18580627 69.93251038 C-3.18755859 69.19255325 -3.18931091 68.45259613 -3.19111633 67.69021606 C-3.19552632 65.23848645 -3.19260015 62.78682865 -3.18922424 60.33509827 C-3.18989746 58.63641343 -3.19086763 56.93772869 -3.19212341 55.23904419 C-3.19359917 51.67722151 -3.19144947 48.11542389 -3.18678284 44.55360413 C-3.18108129 39.97780587 -3.18436802 35.40206621 -3.1903553 30.8262701 C-3.19396051 27.31853795 -3.19282259 23.8108198 -3.19022751 20.30308723 C-3.18955835 18.61530615 -3.19038627 16.92752381 -3.19270706 15.23974419 C-3.1952334 12.88599631 -3.19139348 10.53234478 -3.18580627 8.17860413 C-3.18783051 7.47468536 -3.18985474 6.7707666 -3.19194031 6.04551697 C-3.16603708 0.18514301 -3.16603708 0.18514301 0 0 Z " fill="#4E84E2" transform="translate(140.05641174316406,248.87974548339844)"/>
<path d="M0 0 C0 0.66 0 1.32 0 2 C-2.45896999 4.24820113 -4.44737682 5.81579227 -7.625 6.875 C-11.039342 8.49231989 -11.64778406 10.55184936 -13 14 C-13.69907414 16.73572585 -13.69907414 16.73572585 -14 19 C-14.66 19 -15.32 19 -16 19 C-15.97679687 19.60328125 -15.95359375 20.2065625 -15.9296875 20.828125 C-15.91164063 21.62734375 -15.89359375 22.4265625 -15.875 23.25 C-15.85179687 24.03890625 -15.82859375 24.8278125 -15.8046875 25.640625 C-16.0171622 28.20731941 -16.71345895 29.7916067 -18 32 C-18.66 32 -19.32 32 -20 32 C-20.33 46.52 -20.66 61.04 -21 76 C5.4 76 31.8 76 59 76 C59.9836911 80.91845548 59.62656872 84.23815573 58.625 89 C58.48578125 89.69867188 58.3465625 90.39734375 58.203125 91.1171875 C57.81059326 93.07984619 57.40565339 95.04001132 57 97 C56.66583212 98.66649954 56.33208105 100.33308337 56 102 C55.34 102 54.68 102 54 102 C54.55316581 93.72158757 56.23553052 86.23419092 58 78 C31.27 78 4.54 78 -23 78 C-23.061875 71.503125 -23.12375 65.00625 -23.1875 58.3125 C-23.21481201 56.29036377 -23.24212402 54.26822754 -23.27026367 52.18481445 C-23.34815644 42.34239655 -22.97495839 33.46252902 -20 24 C-19.78512939 23.29786377 -19.57025879 22.59572754 -19.34887695 21.87231445 C-18.8086469 20.2290131 -18.18966636 18.61212599 -17.5625 17 C-17.17191406 15.96875 -16.78132813 14.9375 -16.37890625 13.875 C-13.98885191 8.89177056 -10.99008822 5.67418753 -6.375 2.6875 C-5.59898437 2.17574219 -4.82296875 1.66398438 -4.0234375 1.13671875 C-2 0 -2 0 0 0 Z " fill="#105BD1" transform="translate(303,173)"/>
<path d="M0 0 C0.33 0 0.66 0 1 0 C1 3.96 1 7.92 1 12 C-19.57398573 22.28699287 -44.99758467 13 -68 13 C-67.67 68.77 -67.34 124.54 -67 182 C-62.71 182 -58.42 182 -54 182 C-54 182.33 -54 182.66 -54 183 C-56.31146089 183.36088615 -58.62420829 183.71354191 -60.9375 184.0625 C-62.22527344 184.25972656 -63.51304687 184.45695313 -64.83984375 184.66015625 C-66.40412109 184.82837891 -66.40412109 184.82837891 -68 185 C-69 184 -69 184 -69.12304783 181.19076443 C-69.12212604 179.92329907 -69.12120424 178.65583372 -69.12025452 177.34996033 C-69.12110894 176.6467349 -69.12196337 175.94350947 -69.12284368 175.21897417 C-69.12450053 172.84509484 -69.1189738 170.47128502 -69.11352539 168.09741211 C-69.11324354 166.40270489 -69.11340122 164.70799755 -69.1139679 163.01329041 C-69.11425594 158.39778374 -69.10835809 153.78230283 -69.10139394 149.16680217 C-69.09516156 144.34879736 -69.09455669 139.53079203 -69.09336853 134.71278381 C-69.09025487 125.58257502 -69.08204102 116.45237814 -69.07201904 107.32217461 C-69.06085898 96.93057324 -69.05534772 86.53897132 -69.05032361 76.14736545 C-69.03985843 54.76490217 -69.02151252 33.38245522 -69 12 C-46.89 12 -24.78 12 -2 12 C-1.34 8.04 -0.68 4.08 0 0 Z " fill="#2F71CC" transform="translate(349,314)"/>
<path d="M0 0 C0 0.33 0 0.66 0 1 C6.27 1.33 12.54 1.66 19 2 C19 2.33 19 2.66 19 3 C17.47584473 3.01401855 17.47584473 3.01401855 15.92089844 3.02832031 C-13.16012418 1.1210126 -13.16012418 1.1210126 -39 9 C-40.99958364 9.04080783 -43.00045254 9.04254356 -45 9 C-45 9.66 -45 10.32 -45 11 C-45.75925781 11.03738281 -46.51851562 11.07476562 -47.30078125 11.11328125 C-48.29464844 11.17902344 -49.28851563 11.24476562 -50.3125 11.3125 C-51.29863281 11.37050781 -52.28476563 11.42851562 -53.30078125 11.48828125 C-56.24384457 12.04622813 -57.18182999 12.68540132 -59 15 C-59 14.34 -59 13.68 -59 13 C-59.79664063 13.28875 -60.59328125 13.5775 -61.4140625 13.875 C-62.47367188 14.24625 -63.53328125 14.6175 -64.625 15 C-65.66914063 15.37125 -66.71328125 15.7425 -67.7890625 16.125 C-71.01774506 17.00483564 -73.67244294 17.15988262 -77 17 C-57.27780398 3.85186932 -23.16974056 -0.70927777 0 0 Z " fill="#3079DF" transform="translate(237,0)"/>
<path d="M0 0 C1.35568336 0.00333092 1.35568336 0.00333092 2.73875427 0.00672913 C3.75973709 0.00680466 4.78071991 0.00688019 5.8326416 0.00695801 C6.94304306 0.01211929 8.05344452 0.01728058 9.19749451 0.02259827 C10.89336952 0.02472069 10.89336952 0.02472069 12.62350464 0.02688599 C16.25105891 0.03250433 19.8785525 0.04505994 23.50608826 0.05775452 C25.95856133 0.06276715 28.41103536 0.06733047 30.86351013 0.07142639 C36.89022371 0.08247971 42.91690165 0.09923568 48.94358826 0.12025452 C49.43858826 1.11025452 49.43858826 1.11025452 49.94358826 2.12025452 C33.11358826 2.12025452 16.28358826 2.12025452 -1.05641174 2.12025452 C-1.05641174 26.54025452 -1.05641174 50.96025452 -1.05641174 76.12025452 C-1.38641174 76.12025452 -1.71641174 76.12025452 -2.05641174 76.12025452 C-2.20999675 66.35882384 -2.35817849 56.59732777 -2.49937534 46.83570957 C-2.56510346 42.30347755 -2.63272457 37.77128995 -2.7046051 33.239151 C-2.77384659 28.86908493 -2.83820284 24.49897222 -2.89910698 20.12878227 C-2.92326665 18.45772099 -2.94921578 16.78668463 -2.97694588 15.11567879 C-3.01535121 12.78334073 -3.04751263 10.45099681 -3.07814026 8.11854553 C-3.09108627 7.42083542 -3.10403229 6.72312531 -3.11737061 6.00427246 C-3.13549182 4.37624053 -3.10154287 2.74776167 -3.05641174 1.12025452 C-2.05641174 0.12025452 -2.05641174 0.12025452 0 0 Z " fill="#6F9EE0" transform="translate(140.05641174316406,248.87974548339844)"/>
<path d="M0 0 C0.33 0 0.66 0 1 0 C1.33 20.46 1.66 40.92 2 62 C18.83 62.33 35.66 62.66 53 63 C52.67 63.99 52.34 64.98 52 66 C35.17 65.67 18.34 65.34 1 65 C-0.37332694 62.25334611 -0.11964892 60.06375932 -0.11352539 56.98974609 C-0.11344986 55.72858978 -0.11337433 54.46743347 -0.11329651 53.1680603 C-0.10818949 51.78651897 -0.10297349 50.40497804 -0.09765625 49.0234375 C-0.09579144 47.6138209 -0.09436783 46.20420366 -0.09336853 44.79458618 C-0.08954833 41.08246068 -0.07972228 37.37037422 -0.06866455 33.65826416 C-0.05843975 29.87113981 -0.05386862 26.08400917 -0.04882812 22.296875 C-0.03809958 14.86456552 -0.02102911 7.43228823 0 0 Z " fill="#1F68D3" transform="translate(137,263)"/>
<path d="M0 0 C0.33 0 0.66 0 1 0 C1 13.2 1 26.4 1 40 C27.73 40 54.46 40 82 40 C83.10961509 44.43846035 82.530649 47.58005725 81.625 51.9375 C81.41617188 52.99227539 81.41617188 52.99227539 81.203125 54.06835938 C80.80996229 56.04715469 80.40530117 58.0236552 80 60 C79.66624991 61.66658326 79.33270604 63.333208 79 65 C78.34 65 77.68 65 77 65 C77.55316581 56.72158757 79.23553052 49.23419092 81 41 C54.27 41 27.54 41 0 41 C0 27.47 0 13.94 0 0 Z " fill="#6293D7" transform="translate(280,210)"/>
<path d="M0 0 C0.66 0.33 1.32 0.66 2 1 C1.83395264 1.5669458 1.66790527 2.1338916 1.49682617 2.71801758 C0.71513103 5.41287293 -0.04856967 8.11255712 -0.8125 10.8125 C-1.07353516 11.70259766 -1.33457031 12.59269531 -1.60351562 13.50976562 C-6.90859827 32.43777655 -7.51073853 51.12547353 -7.6875 70.6875 C-7.72075418 73.25066758 -7.75525097 75.81381935 -7.79101562 78.37695312 C-7.8749755 84.58452641 -7.94370133 90.79211735 -8 97 C-8.33 97 -8.66 97 -9 97 C-9.02332874 88.87995929 -9.04101852 80.75993294 -9.05181217 72.63986683 C-9.05699659 68.86805334 -9.06401194 65.09626304 -9.07543945 61.32446289 C-9.08642822 57.67399053 -9.09231014 54.02354025 -9.09487724 50.3730526 C-9.09670305 48.99104147 -9.10026714 47.60903134 -9.10573006 46.2270298 C-9.19832095 21.79748143 -9.19832095 21.79748143 -6 17 C-5.31526605 14.67190457 -4.65146849 12.33762223 -4 10 C-2.81122382 6.60524741 -1.61032804 3.22065609 0 0 Z " fill="#6B9EE6" transform="translate(199,153)"/>
<path d="M0 0 C2 3 2 3 1.828125 5.26953125 C1.63734375 6.10871094 1.4465625 6.94789063 1.25 7.8125 C1.06953125 8.64394531 0.8890625 9.47539062 0.703125 10.33203125 C0 13 0 13 -1.0390625 15.89453125 C-2.08817339 19.28495058 -2.40841927 22.33751479 -2.625 25.875 C-2.73714844 27.60363281 -2.73714844 27.60363281 -2.8515625 29.3671875 C-2.90054687 30.23601562 -2.94953125 31.10484375 -3 32 C-3.66 32 -4.32 32 -5 32 C-5.02505615 33.07258057 -5.0501123 34.14516113 -5.07592773 35.25024414 C-5.17148942 39.30403696 -5.27132022 43.35771615 -5.37231445 47.41137695 C-5.41511049 49.15190945 -5.45681261 50.89246925 -5.49731445 52.63305664 C-5.74982356 63.4473047 -6.16821698 74.2133561 -7 85 C-7.33 85 -7.66 85 -8 85 C-8.97464687 17.94929373 -8.97464687 17.94929373 0 0 Z " fill="#4E90E1" transform="translate(8,185)"/>
<path d="M0 0 C7.56799822 -0.19001809 14.92432776 0.36349496 22.4375 1.25 C23.56607422 1.38204834 24.69464844 1.51409668 25.85742188 1.65014648 C32.96378953 2.52336102 39.98944228 3.60593885 47 5.0625 C47.78818115 5.22459961 48.5763623 5.38669922 49.38842773 5.55371094 C54.73847056 6.73847056 54.73847056 6.73847056 57 9 C55.02090602 9.02686553 53.04171029 9.04633375 51.0625 9.0625 C49.96035156 9.07410156 48.85820312 9.08570313 47.72265625 9.09765625 C45 9 45 9 44 8 C37.38270607 6.64646261 30.72724312 6.9089546 24 7 C24 6.01 24 5.02 24 4 C23.41508789 3.98541748 22.83017578 3.97083496 22.22753906 3.95581055 C19.56770603 3.8811643 16.90910552 3.78456101 14.25 3.6875 C13.32960938 3.66494141 12.40921875 3.64238281 11.4609375 3.61914062 C10.57148438 3.58369141 9.68203125 3.54824219 8.765625 3.51171875 C7.94868164 3.48553467 7.13173828 3.45935059 6.29003906 3.43237305 C3.54005383 2.91315942 2.09770527 1.80916549 0 0 Z " fill="#3077DA" transform="translate(258,0)"/>
<path d="M0 0 C-3.26647604 2.17765069 -6.50665111 3.31270713 -10.1953125 4.53125 C-10.90219208 4.76783325 -11.60907166 5.0044165 -12.33737183 5.24816895 C-13.83452879 5.74790126 -15.33244466 6.24536486 -16.83105469 6.74072266 C-19.09798659 7.49105878 -21.3615914 8.2508303 -23.625 9.01171875 C-42.92874132 15.45621024 -42.92874132 15.45621024 -50 15 C-49.67 14.34 -49.34 13.68 -49 13 C-46.7591427 12.39737901 -44.51429025 12.04392817 -42.2265625 11.66015625 C-39.69144413 10.90851589 -38.80945934 9.85559286 -37 8 C-34.3125 8.3125 -34.3125 8.3125 -32 9 C-32 8.01 -32 7.02 -32 6 C-29 4 -29 4 -26.4375 4.3125 C-24 5 -24 5 -22 6 C-21.67 5.01 -21.34 4.02 -21 3 C-20.00419922 2.92652344 -20.00419922 2.92652344 -18.98828125 2.8515625 C-12.39594547 2.29337932 -6.55433621 -0.30485285 0 0 Z " fill="#0866F5" transform="translate(349,480)"/>
<path d="M0 0 C0.66 0.33 1.32 0.66 2 1 C-0.6183773 21.28265405 -8.64099554 40.07822495 -16 59 C-16.33 59 -16.66 59 -17 59 C-16.67 55.7 -16.34 52.4 -16 49 C-15.34 49 -14.68 49 -14 49 C-13.83564453 47.82244141 -13.83564453 47.82244141 -13.66796875 46.62109375 C-11.5433526 32.5433526 -11.5433526 32.5433526 -7 28 C-6.22886922 25.4567234 -5.55335139 22.95548756 -4.9375 20.375 C-4.76412109 19.68792969 -4.59074219 19.00085938 -4.41210938 18.29296875 C-3.24954727 13.54472659 -2.52961627 8.8593658 -2 4 C-1.34 4 -0.68 4 0 4 C0 2.68 0 1.36 0 0 Z " fill="#3B78D7" transform="translate(493,300)"/>
<path d="M0 0 C0 0.66 0 1.32 0 2 C-2.45896999 4.24820113 -4.44737682 5.81579227 -7.625 6.875 C-11.039342 8.49231989 -11.64778406 10.55184936 -13 14 C-13.69907414 16.73572585 -13.69907414 16.73572585 -14 19 C-14.66 19 -15.32 19 -16 19 C-15.97679687 19.60328125 -15.95359375 20.2065625 -15.9296875 20.828125 C-15.91164063 21.62734375 -15.89359375 22.4265625 -15.875 23.25 C-15.85179687 24.03890625 -15.82859375 24.8278125 -15.8046875 25.640625 C-16.02037609 28.24614317 -16.6078822 29.79986977 -18 32 C-18.99 32.495 -18.99 32.495 -20 33 C-21.13350534 35.01669827 -21.13350534 35.01669827 -22 37 C-21.9717502 30.2059225 -20.68955552 24.3863129 -18.1875 18.125 C-17.8150415 17.1803186 -17.8150415 17.1803186 -17.43505859 16.21655273 C-14.92936115 10.22664393 -11.81423566 6.20754047 -6.375 2.6875 C-5.59898437 2.17574219 -4.82296875 1.66398438 -4.0234375 1.13671875 C-2 0 -2 0 0 0 Z " fill="#3F7EDD" transform="translate(303,173)"/>
<path d="M0 0 C5.30191714 -0.02479671 10.6038002 -0.04290578 15.90576172 -0.05493164 C17.70785104 -0.05994733 19.50993631 -0.06676146 21.31201172 -0.07543945 C23.90853882 -0.08762636 26.50501192 -0.09325606 29.1015625 -0.09765625 C29.9017984 -0.10281754 30.7020343 -0.10797882 31.52651978 -0.11329651 C35.81219361 -0.11372224 39.77115632 0.22319761 44 1 C45.7507345 1.11523535 47.50396086 1.19756627 49.2578125 1.24609375 C50.21300781 1.27896484 51.16820312 1.31183594 52.15234375 1.34570312 C54.14180344 1.40713848 56.13139626 1.46439847 58.12109375 1.51757812 C59.07371094 1.55173828 60.02632813 1.58589844 61.0078125 1.62109375 C61.87035645 1.6461499 62.73290039 1.67120605 63.62158203 1.69702148 C66.13840661 2.01763114 67.8169772 2.7373578 70 4 C62.98497213 5.33196732 56.49331968 4.62935475 49.4296875 3.8500061 C32.96048755 2.04648586 16.56052009 1.32581023 0 1 C0 0.67 0 0.34 0 0 Z " fill="#5A8FD7" transform="translate(296,93)"/>
<path d="M0 0 C1.8196565 0.01005604 3.63931841 0.01917722 5.45898438 0.02734375 C9.86862604 0.0491352 14.27800142 0.08351836 18.6875 0.125 C18.6875 0.455 18.6875 0.785 18.6875 1.125 C17.81875244 1.12910889 16.95000488 1.13321777 16.05493164 1.13745117 C-0.27693785 1.27189198 -15.87470495 1.71351277 -31.83178711 5.57299805 C-32.78190674 5.80027588 -33.73202637 6.02755371 -34.7109375 6.26171875 C-35.94336182 6.58209106 -35.94336182 6.58209106 -37.20068359 6.90893555 C-39.3125 7.125 -39.3125 7.125 -42.3125 5.125 C-28.34654428 -0.0826445 -14.69681058 -0.14249172 0 0 Z " fill="#6098E1" transform="translate(345.3125,166.875)"/>
<path d="M0 0 C2.97 0.495 2.97 0.495 6 1 C2.98266558 3.37686249 -0.13113304 5.28322933 -3.5 7.125 C-4.4384375 7.64320312 -5.376875 8.16140625 -6.34375 8.6953125 C-8.60957842 9.80823411 -10.53702487 10.52366991 -13 11 C-13 11.66 -13 12.32 -13 13 C-17.47058824 17 -17.47058824 17 -20 17 C-20 17.66 -20 18.32 -20 19 C-20.99 19.33 -21.98 19.66 -23 20 C-23 18.35 -23 16.7 -23 15 C-21.68 15 -20.36 15 -19 15 C-19.33 13.68 -19.66 12.36 -20 11 C-18.02 11 -16.04 11 -14 11 C-14 9.68 -14 8.36 -14 7 C-10.535 6.505 -10.535 6.505 -7 6 C-7 5.34 -7 4.68 -7 4 C-4.69 3.34 -2.38 2.68 0 2 C0 1.34 0 0.68 0 0 Z " fill="#3880DE" transform="translate(243,103)"/>
<path d="M0 0 C0.33 1.32 0.66 2.64 1 4 C-2.75 7 -2.75 7 -5 7 C-5.2475 7.7425 -5.495 8.485 -5.75 9.25 C-7.10465039 12.23023087 -8.5101541 13.89919252 -11 16 C-11.66 16 -12.32 16 -13 16 C-13 16.66 -13 17.32 -13 18 C-13.99 18 -14.98 18 -16 18 C-16 19.98 -16 21.96 -16 24 C-18.375 24.625 -18.375 24.625 -21 25 C-21.66 24.34 -22.32 23.68 -23 23 C-21.625 21 -21.625 21 -20 19 C-19.34 19 -18.68 19 -18 19 C-18 18.34 -18 17.68 -18 17 C-17.34 17 -16.68 17 -16 17 C-16 16.34 -16 15.68 -16 15 C-15.34 15 -14.68 15 -14 15 C-14 14.34 -14 13.68 -14 13 C-13.34 13 -12.68 13 -12 13 C-11.67 12.01 -11.34 11.02 -11 10 C-10.34 10 -9.68 10 -9 10 C-9 9.34 -9 8.68 -9 8 C-8.34 8 -7.68 8 -7 8 C-7 7.34 -7 6.68 -7 6 C-6.34 6 -5.68 6 -5 6 C-5 5.34 -5 4.68 -5 4 C-3.37373596 2.61767557 -1.7074998 1.28062485 0 0 Z " fill="#4583DD" transform="translate(85,61)"/>
<path d="M0 0 C2.46129095 4.9225819 3.41524648 9.70751546 4.5625 15.0625 C4.78357422 16.04927734 5.00464844 17.03605469 5.23242188 18.05273438 C6.67078507 24.68832532 7.54632182 31.22645988 8 38 C5.14848489 35.36658404 4.51770016 33.73924573 3.9375 29.875 C3.57796471 27.25182793 3.57796471 27.25182793 3 25 C2.34 24.67 1.68 24.34 1 24 C0.67 16.08 0.34 8.16 0 0 Z " fill="#337CDD" transform="translate(491,183)"/>
<path d="M0 0 C0.33 0 0.66 0 1 0 C1.33 9.24 1.66 18.48 2 28 C-4.35062747 26.72987451 -10.10052008 25.4897154 -16.125 23.375 C-16.7953125 23.14554687 -17.465625 22.91609375 -18.15625 22.6796875 C-19.77278352 22.12544743 -21.3866989 21.56357985 -23 21 C-23 20.67 -23 20.34 -23 20 C-20.03 19.67 -17.06 19.34 -14 19 C-14.66 18.34 -15.32 17.68 -16 17 C-14.68 17.33 -13.36 17.66 -12 18 C-12 19.32 -12 20.64 -12 22 C-6.06 22.99 -6.06 22.99 0 24 C0 16.08 0 8.16 0 0 Z " fill="#1F6DE3" transform="translate(188,465)"/>
<path d="M0 0 C0.33 0 0.66 0 1 0 C1 3.96 1 7.92 1 12 C-1.85570699 13.4278535 -4.27714356 13.11941486 -7.46923828 13.11352539 C-8.46454056 13.11374443 -8.46454056 13.11374443 -9.47994995 13.1139679 C-11.67677053 13.11327031 -13.8735067 13.10548514 -16.0703125 13.09765625 C-17.59203037 13.09579152 -19.11374884 13.09436788 -20.63546753 13.09336853 C-24.64351047 13.08954767 -28.65151726 13.07972104 -32.6595459 13.06866455 C-36.74828604 13.05844118 -40.83703201 13.05386892 -44.92578125 13.04882812 C-52.95053744 13.0380984 -60.97526422 13.02102713 -69 13 C-69 12.67 -69 12.34 -69 12 C-46.89 12 -24.78 12 -2 12 C-1.34 8.04 -0.68 4.08 0 0 Z " fill="#5892DF" transform="translate(349,314)"/>
<path d="M0 0 C5.00938376 0.58719081 9.44495055 1.65730083 14.24609375 3.28515625 C14.90207047 3.50570175 15.55804718 3.72624725 16.23390198 3.95347595 C18.30373666 4.65081199 20.37060953 5.35649132 22.4375 6.0625 C23.85072317 6.54027085 25.2641331 7.01748965 26.67773438 7.49414062 C30.12067028 8.65639084 33.56100429 9.82613495 37 11 C37 11.33 37 11.66 37 12 C30.77330262 12.3322546 26.50305882 12.25180749 21 9 C19.00428677 8.32060826 17.00405227 7.65438441 15 7 C13.88625 6.505 12.7725 6.01 11.625 5.5 C7.75123747 3.89706378 4.07967898 2.9304531 0 2 C0 1.34 0 0.68 0 0 Z " fill="#4883D9" transform="translate(315,9)"/>
<path d="M0 0 C0.33 0 0.66 0 1 0 C1.33 18.48 1.66 36.96 2 56 C6.29 56 10.58 56 15 56 C15 56.33 15 56.66 15 57 C12.68853911 57.36088615 10.37579171 57.71354191 8.0625 58.0625 C6.13083984 58.35833984 6.13083984 58.35833984 4.16015625 58.66015625 C3.11730469 58.77230469 2.07445312 58.88445312 1 59 C0 58 0 58 -0.12025452 55.67784119 C-0.11803391 54.64969803 -0.11581329 53.62155487 -0.11352539 52.56225586 C-0.11344986 51.40112778 -0.11337433 50.23999969 -0.11329651 49.04368591 C-0.10813522 47.780168 -0.10297394 46.51665009 -0.09765625 45.21484375 C-0.0962413 43.92888809 -0.09482635 42.64293243 -0.09336853 41.31800842 C-0.08954418 37.89356557 -0.07971462 34.46916491 -0.06866455 31.04473877 C-0.05844864 27.55261811 -0.05387053 24.06049066 -0.04882812 20.56835938 C-0.03809227 13.71222222 -0.02101684 6.85611313 0 0 Z " fill="#2F71CC" transform="translate(280,440)"/>
<path d="M0 0 C0.66 0 1.32 0 2 0 C2.08040527 0.60996826 2.16081055 1.21993652 2.24365234 1.84838867 C2.61405287 4.62903458 2.99442829 7.40822868 3.375 10.1875 C3.50132813 11.14720703 3.62765625 12.10691406 3.7578125 13.09570312 C3.88671875 14.02705078 4.015625 14.95839844 4.1484375 15.91796875 C4.26364746 16.77156982 4.37885742 17.6251709 4.49755859 18.50463867 C4.93549573 21.06906778 4.93549573 21.06906778 6.05322266 23.63012695 C7 26 7 26 7 29 C7.99 29.33 8.98 29.66 10 30 C10 33.3 10 36.6 10 40 C7.90580149 37.90580149 7.473392 36.89030165 6.59765625 34.140625 C6.34830322 33.36090332 6.0989502 32.58118164 5.84204102 31.77783203 C5.58479248 30.94364746 5.32754395 30.10946289 5.0625 29.25 C4.79816162 28.39905762 4.53382324 27.54811523 4.26147461 26.67138672 C-1.80773683 6.75719558 -1.80773683 6.75719558 0 0 Z " fill="#4E8DDC" transform="translate(5,294)"/>
<path d="M0 0 C0.99 0 1.98 0 3 0 C3.50615298 1.26839526 4.00469099 2.53983102 4.5 3.8125 C4.91765625 4.87404297 4.91765625 4.87404297 5.34375 5.95703125 C6 8 6 8 6 11 C8.97 11.495 8.97 11.495 12 12 C12 12.66 12 13.32 12 14 C12.99 14.33 13.98 14.66 15 15 C15.33 15.66 15.66 16.32 16 17 C15.01 17 14.02 17 13 17 C13 18.98 13 20.96 13 23 C13.66 23.33 14.32 23.66 15 24 C14.34 24.66 13.68 25.32 13 26 C11.20637815 22.9178001 9.41544705 19.83404505 7.625 16.75 C6.86316406 15.44095703 6.86316406 15.44095703 6.0859375 14.10546875 C5.59609375 13.26113281 5.10625 12.41679687 4.6015625 11.546875 C4.15119629 10.77182617 3.70083008 9.99677734 3.23681641 9.19824219 C0 3.44532175 0 3.44532175 0 0 Z " fill="#0C62EC" transform="translate(24,357)"/>
<path d="M0 0 C0.99 0 1.98 0 3 0 C3.33 0.99 3.66 1.98 4 3 C-3.22153018 9.65919791 -10.39880879 16.16182994 -19 21 C-19.33 20.01 -19.66 19.02 -20 18 C-18.68 18 -17.36 18 -16 18 C-16 17.34 -16 16.68 -16 16 C-15.34 16 -14.68 16 -14 16 C-14.33 14.68 -14.66 13.36 -15 12 C-12.36 11.67 -9.72 11.34 -7 11 C-6.34 8.36 -5.68 5.72 -5 3 C-2.525 3.495 -2.525 3.495 0 4 C0 2.68 0 1.36 0 0 Z " fill="#387DDF" transform="translate(417,431)"/>
<path d="M0 0 C0.33 0 0.66 0 1 0 C1 5.28 1 10.56 1 16 C0.34 16 -0.32 16 -1 16 C-1 19.63 -1 23.26 -1 27 C-1.66 27 -2.32 27 -3 27 C-3.33 30.3 -3.66 33.6 -4 37 C-4.66 37 -5.32 37 -6 37 C-5.44030057 28.62574949 -4.08579985 20.53553089 -2.4375 12.3125 C-2.20353516 11.12205078 -1.96957031 9.93160156 -1.72851562 8.70507812 C-1.15729936 5.8023669 -0.58104763 2.90075626 0 0 Z " fill="#4482DD" transform="translate(356,277)"/>
<path d="M0 0 C1.10844919 3.32534757 0.84454356 5.62182575 0 9 C-0.66 9 -1.32 9 -2 9 C-2.33 12.3 -2.66 15.6 -3 19 C-3.99 19 -4.98 19 -6 19 C-9.0109362 21.0072908 -9.63016497 21.83884224 -11 25 C-11.33 24.34 -11.66 23.68 -12 23 C-10.8467152 20.36860342 -9.63610581 17.85648412 -8.3125 15.3125 C-7.95994141 14.61705078 -7.60738281 13.92160156 -7.24414062 13.20507812 C-4.95648675 8.72596057 -2.52518757 4.34925083 0 0 Z " fill="#2B77E8" transform="translate(33,124)"/>
<path d="M0 0 C1.11375 0.4640625 1.11375 0.4640625 2.25 0.9375 C4.85712052 2.06324174 4.85712052 2.06324174 7.1875 2.3125 C7.785625 2.539375 8.38375 2.76625 9 3 C9.70211894 4.65204456 10.36971413 6.31923769 11 8 C11.99 8.33 12.98 8.66 14 9 C14.33 9.99 14.66 10.98 15 12 C15.66 12.33 16.32 12.66 17 13 C17 13.99 17 14.98 17 16 C17.66 16 18.32 16 19 16 C19.33 17.32 19.66 18.64 20 20 C19.34 20 18.68 20 18 20 C18 19.34 18 18.68 18 18 C17.34 18 16.68 18 16 18 C16 17.34 16 16.68 16 16 C15.401875 15.731875 14.80375 15.46375 14.1875 15.1875 C12.00152146 14.00082594 10.58667406 12.90400887 9 11 C9 10.34 9 9.68 9 9 C8.34 9 7.68 9 7 9 C7 8.34 7 7.68 7 7 C6.34 7 5.68 7 5 7 C5 6.34 5 5.68 5 5 C4.34 5 3.68 5 3 5 C1.375 2.5 1.375 2.5 0 0 Z " fill="#3D7DE1" transform="translate(62,415)"/>
<path d="M0 0 C0.66 0.33 1.32 0.66 2 1 C0.71937515 2.7074998 -0.61767557 4.37373596 -2 6 C-2.66 6 -3.32 6 -4 6 C-4.04125 6.556875 -4.0825 7.11375 -4.125 7.6875 C-5.44669015 11.18053825 -7.8255828 13.19958427 -11 15 C-13.73421656 15.67741811 -16.16461694 15.85334226 -19 16 C-15.16771102 11.99185072 -11.07477678 8.57171247 -6.6875 5.1875 C-6.04232422 4.68541016 -5.39714844 4.18332031 -4.73242188 3.66601562 C-3.15732875 2.44094319 -1.57899684 1.2200368 0 0 Z " fill="#1562ED" transform="translate(105,45)"/>
<path d="M0 0 C0 0.66 0 1.32 0 2 C-3 4 -3 4 -6.5625 5 C-10.03073325 5.70977006 -10.03073325 5.70977006 -12 8 C-12.99 8 -13.98 8 -15 8 C-15 8.99 -15 9.98 -15 11 C-18.3 11 -21.6 11 -25 11 C-23.721028 8.442056 -22.6938031 8.22878005 -20.10546875 7.08984375 C-19.31462891 6.73986328 -18.52378906 6.38988281 -17.70898438 6.02929688 C-16.87689453 5.66900391 -16.04480469 5.30871094 -15.1875 4.9375 C-13.95676758 4.39125977 -13.95676758 4.39125977 -12.70117188 3.83398438 C-3.96308919 0 -3.96308919 0 0 0 Z " fill="#4285DE" transform="translate(160,17)"/>
<path d="M0 0 C5.43683334 1.49212776 9.69063815 4.1009183 14.375 7.125 C15.47908203 7.82689453 15.47908203 7.82689453 16.60546875 8.54296875 C18.40730078 9.68958913 20.20416431 10.84401076 22 12 C21.01 12.66 20.02 13.32 19 14 C19 13.34 19 12.68 19 12 C16.525 11.505 16.525 11.505 14 11 C13.67 10.01 13.34 9.02 13 8 C11.37512529 7.83211627 9.75009558 7.66573213 8.125 7.5 C7.22007812 7.4071875 6.31515625 7.314375 5.3828125 7.21875 C3.06686789 6.96952705 3.06686789 6.96952705 1 7 C0.67 4.69 0.34 2.38 0 0 Z " fill="#548FDF" transform="translate(367,29)"/>
<path d="M0 0 C5.84717042 -0.23736822 11.10700885 0.63829861 16.8125 1.875 C17.67037109 2.04902344 18.52824219 2.22304687 19.41210938 2.40234375 C20.6409082 2.66337891 20.6409082 2.66337891 21.89453125 2.9296875 C23.00598511 3.16534424 23.00598511 3.16534424 24.13989258 3.40576172 C26 4 26 4 28 6 C26.02090602 6.02686553 24.04171029 6.04633375 22.0625 6.0625 C20.96035156 6.07410156 19.85820312 6.08570313 18.72265625 6.09765625 C16 6 16 6 15 5 C13.4840625 4.814375 13.4840625 4.814375 11.9375 4.625 C7.57585185 3.9326749 4.08371189 2.64781357 0 1 C0 0.67 0 0.34 0 0 Z " fill="#4C88DC" transform="translate(287,3)"/>
<path d="M0 0 C1.75972078 2.63958118 2.69589746 4.64748769 3.7265625 7.59765625 C4.0359375 8.48130859 4.3453125 9.36496094 4.6640625 10.27539062 C4.98117187 11.19513672 5.29828125 12.11488281 5.625 13.0625 C5.94984375 13.98611328 6.2746875 14.90972656 6.609375 15.86132812 C9 22.73688616 9 22.73688616 9 25 C7.68 24.67 6.36 24.34 5 24 C4.89042969 23.43152344 4.78085937 22.86304688 4.66796875 22.27734375 C3.87103457 18.39633909 3.02997823 15.0657215 1.375 11.4375 C-0.29592016 7.2601996 -0.2344907 4.45532329 0 0 Z " fill="#3D7CDB" transform="translate(480,151)"/>
<path d="M0 0 C1.6543443 6.06351045 1.11268754 12.42058797 -1.375 18.1875 C-2.179375 19.0846875 -2.179375 19.0846875 -3 20 C-3.99 20 -4.98 20 -6 20 C-6.33 20.99 -6.66 21.98 -7 23 C-6.33654156 17.74272175 -4.74419696 13.07140932 -2.9375 8.125 C-2.65583984 7.34125 -2.37417969 6.5575 -2.08398438 5.75 C-1.39386218 3.83169424 -0.69755684 1.91561481 0 0 Z " fill="#3479E4" transform="translate(20,149)"/>
<path d="M0 0 C0.99 0.33 1.98 0.66 3 1 C1.58611621 2.75224914 0.16877217 4.50170655 -1.25 6.25 C-2.03890625 7.22453125 -2.8278125 8.1990625 -3.640625 9.203125 C-5.66465805 11.60247544 -7.74122349 13.82411437 -10 16 C-11.4783226 13.04335481 -11.06032783 10.25770263 -11 7 C-9 7 -7 7 -5 7 C-5 5.68 -5 4.36 -5 3 C-4.360625 2.87625 -3.72125 2.7525 -3.0625 2.625 C-2.381875 2.41875 -1.70125 2.2125 -1 2 C-0.67 1.34 -0.34 0.68 0 0 Z " fill="#2771E1" transform="translate(445,403)"/>
<path d="M0 0 C0.99 0.33 1.98 0.66 3 1 C2.09507812 2.35931641 2.09507812 2.35931641 1.171875 3.74609375 C-3.1561078 10.31798168 -7.08627082 16.65233511 -10 24 C-10.33 24 -10.66 24 -11 24 C-11 21.69 -11 19.38 -11 17 C-10.34 17 -9.68 17 -9 17 C-8.67 15.02 -8.34 13.04 -8 11 C-7.34 11 -6.68 11 -6 11 C-5.67 9.35 -5.34 7.7 -5 6 C-4.34 6 -3.68 6 -3 6 C-3 5.01 -3 4.02 -3 3 C-1.5 1.3125 -1.5 1.3125 0 0 Z " fill="#407FD8" transform="translate(212,129)"/>
<path d="M0 0 C4.02992782 0.55312735 8.02022924 1.1558062 12 2 C12 2.66 12 3.32 12 4 C14.64 4.66 17.28 5.32 20 6 C20 7.32 20 8.64 20 10 C12.755702 7.86233829 6.53281715 4.77315981 0 1 C0 0.67 0 0.34 0 0 Z " fill="#3E80DE" transform="translate(133,471)"/>
<path d="M0 0 C1.98 0 3.96 0 6 0 C1.90473413 4.89434213 -2.26357085 9.70720334 -7 14 C-7.33 14 -7.66 14 -8 14 C-8 12.35 -8 10.7 -8 9 C-7.34 9 -6.68 9 -6 9 C-6 8.34 -6 7.68 -6 7 C-5.01 7 -4.02 7 -3 7 C-3.66 5.35 -4.32 3.7 -5 2 C-4.01 2.33 -3.02 2.66 -2 3 C-1.34 2.67 -0.68 2.34 0 2 C0 1.34 0 0.68 0 0 Z " fill="#3A7DDF" transform="translate(429,419)"/>
<path d="M0 0 C0.721875 0.144375 1.44375 0.28875 2.1875 0.4375 C3.5796875 0.7159375 3.5796875 0.7159375 5 1 C6.66666667 1.33333333 8.33333333 1.66666667 10 2 C9.67 3.32 9.34 4.64 9 6 C10.36125 6.0928125 10.36125 6.0928125 11.75 6.1875 C15.73784176 7.18446044 16.76592111 8.64888166 19 12 C17.30859375 12.7265625 17.30859375 12.7265625 15 13 C12.59765625 11.5234375 12.59765625 11.5234375 10.0625 9.375 C9.18980469 8.64023437 8.31710938 7.90546875 7.41796875 7.1484375 C4.83071527 4.84958546 2.3663618 2.52411925 0 0 Z " fill="#4E8BE0" transform="translate(90,442)"/>
<path d="M0 0 C0.61101562 0.19464844 1.22203125 0.38929688 1.8515625 0.58984375 C-0.72934517 1.90730708 -3.31294208 3.21893992 -5.8984375 4.52734375 C-6.62804687 4.90052734 -7.35765625 5.27371094 -8.109375 5.65820312 C-8.81835938 6.01591797 -9.52734375 6.37363281 -10.2578125 6.7421875 C-10.90717773 7.07210693 -11.55654297 7.40202637 -12.22558594 7.74194336 C-14.18136829 8.60436491 -16.06384444 9.13358554 -18.1484375 9.58984375 C-18.4784375 8.59984375 -18.8084375 7.60984375 -19.1484375 6.58984375 C-18.1584375 6.25984375 -17.1684375 5.92984375 -16.1484375 5.58984375 C-14.93961654 3.58967909 -14.93961654 3.58967909 -14.1484375 1.58984375 C-13.8184375 1.91984375 -13.4884375 2.24984375 -13.1484375 2.58984375 C-8.03143549 3.05502575 -4.3085057 -0.82253291 0 0 Z " fill="#1D6EE1" transform="translate(367.1484375,470.41015625)"/>
<path d="M0 0 C5.85407687 5.49712096 10.22921364 12.50257808 13 20 C12.01 20 11.02 20 10 20 C9.34 18.02 8.68 16.04 8 14 C7.34 14 6.68 14 6 14 C5.67 13.34 5.34 12.68 5 12 C4.01 11.34 3.02 10.68 2 10 C1.375 7.6875 1.375 7.6875 1 5 C0.814375 4.071875 0.62875 3.14375 0.4375 2.1875 C0.293125 1.465625 0.14875 0.74375 0 0 Z " fill="#4C87DB" transform="translate(454,105)"/>
<path d="M0 0 C2.62697064 -0.22137393 5.00893964 -0.28162025 7.625 -0.1875 C8.33140625 -0.17396484 9.0378125 -0.16042969 9.765625 -0.14648438 C11.51074128 -0.1111104 13.25546608 -0.05730221 15 0 C11.07480248 2.61679835 7.15737144 3.45447765 2.625 4.625 C1.77421875 4.85445313 0.9234375 5.08390625 0.046875 5.3203125 C-4.03612145 6.38876017 -7.74003954 7.33308333 -12 7 C-11.67 6.34 -11.34 5.68 -11 5 C-8.72600246 4.39923744 -6.44869424 4.0436846 -4.12890625 3.66015625 C-1.63209975 3.13111321 -1.63209975 3.13111321 0 0 Z " fill="#4786DB" transform="translate(311,488)"/>
<path d="M0 0 C3.32310483 1.16757737 5.83361132 2.14948857 8 5 C8 5.99 8 6.98 8 8 C8.99 8.33 9.98 8.66 11 9 C11.33 10.65 11.66 12.3 12 14 C13.32 14.33 14.64 14.66 16 15 C15.34 15 14.68 15 14 15 C13.67 15.66 13.34 16.32 13 17 C3.40546697 5.47835991 3.40546697 5.47835991 0 0 Z " fill="#5089DD" transform="translate(48,398)"/>
<path d="M0 0 C0.33 0 0.66 0 1 0 C1.58912359 9.90600407 -0.20865113 19.30752309 -2 29 C-2.33 29 -2.66 29 -3 29 C-3.09733092 21.90565767 -3.10087193 15.01805857 -2 8 C-1.34 8 -0.68 8 0 8 C0 5.36 0 2.72 0 0 Z " fill="#4F8AE0" transform="translate(498,272)"/>
<path d="M0 0 C0.88336837 2.4667645 1.1312406 3.63859372 0.22265625 6.140625 C-0.16019531 6.83671875 -0.54304688 7.5328125 -0.9375 8.25 C-1.31777344 8.95640625 -1.69804688 9.6628125 -2.08984375 10.390625 C-2.39019531 10.92171875 -2.69054688 11.4528125 -3 12 C-3.99 12 -4.98 12 -6 12 C-6.33 13.98 -6.66 15.96 -7 18 C-7.99 17.34 -8.98 16.68 -10 16 C-8.8989859 14.08152063 -7.79405904 12.16528646 -6.6875 10.25 C-6.07261719 9.18265625 -5.45773438 8.1153125 -4.82421875 7.015625 C-3.32904649 4.54394837 -1.78623484 2.26439616 0 0 Z " fill="#4C8CDF" transform="translate(44,107)"/>
<path d="M0 0 C0 0.33 0 0.66 0 1 C-2.87456792 1.33747548 -5.74956059 1.67010463 -8.625 2 C-9.43324219 2.09539062 -10.24148438 2.19078125 -11.07421875 2.2890625 C-15.40973739 2.78253617 -19.62737311 3.11320717 -24 3 C-23 1 -23 1 -21.0625 -0.125 C-14.20757918 -2.08354881 -6.95709693 -1.03068103 0 0 Z " fill="#568FE2" transform="translate(296,94)"/>
<path d="M0 0 C-1.65 1.65 -3.3 3.3 -5 5 C-5 4.34 -5 3.68 -5 3 C-5.79664063 3.28875 -6.59328125 3.5775 -7.4140625 3.875 C-8.47367188 4.24625 -9.53328125 4.6175 -10.625 5 C-11.66914063 5.37125 -12.71328125 5.7425 -13.7890625 6.125 C-17.01774506 7.00483564 -19.67244294 7.15988262 -23 7 C-19.33462748 4.55641832 -15.63127136 3.27810128 -11.5 1.8125 C-10.72785156 1.52697266 -9.95570313 1.24144531 -9.16015625 0.94726562 C-8.41636719 0.68236328 -7.67257813 0.41746094 -6.90625 0.14453125 C-6.22884766 -0.09934326 -5.55144531 -0.34321777 -4.85351562 -0.59448242 C-3 -1 -3 -1 0 0 Z " fill="#4F8BDE" transform="translate(183,10)"/>
<path d="M0 0 C-2.60258324 0.83857688 -5.20685647 1.67103344 -7.8125 2.5 C-8.91948242 2.85771484 -8.91948242 2.85771484 -10.04882812 3.22265625 C-13.13255196 4.19940136 -15.74495809 5 -19 5 C-18.67 3.68 -18.34 2.36 -18 1 C-15.69 1 -13.38 1 -11 1 C-11 0.34 -11 -0.32 -11 -1 C-6.50114053 -1.86516528 -3.98352209 -2.30903272 0 0 Z " fill="#3C7ADB" transform="translate(269,98)"/>
<path d="M0 0 C0.66 0 1.32 0 2 0 C0.56347895 4.91441412 -1.54159615 9.00238358 -4.125 13.375 C-4.49753906 14.01566406 -4.87007813 14.65632813 -5.25390625 15.31640625 C-6.16434002 16.88048477 -7.08148191 18.44065534 -8 20 C-8.66 19.67 -9.32 19.34 -10 19 C-9.34 17.02 -8.68 15.04 -8 13 C-7.34 13 -6.68 13 -6 13 C-6 11.68 -6 10.36 -6 9 C-5.34 9 -4.68 9 -4 9 C-3.71125 8.2575 -3.4225 7.515 -3.125 6.75 C-2.17697356 4.43260203 -1.15154089 2.22082885 0 0 Z " fill="#4E86D5" transform="translate(473,360)"/>
<path d="M0 0 C5.23435005 4.27293882 9.67106815 8.81580806 14 14 C11 14 11 14 8 13 C8 11.68 8 10.36 8 9 C7.05125 8.814375 6.1025 8.62875 5.125 8.4375 C2 7 2 7 0.625 3.375 C0.41875 2.26125 0.2125 1.1475 0 0 Z " fill="#518EDF" transform="translate(425,71)"/>
<path d="M0 0 C0.99 0.33 1.98 0.66 3 1 C0.19680829 3.99876322 -2.59434917 6.16322727 -6.125 8.25 C-6.99382812 8.77078125 -7.86265625 9.2915625 -8.7578125 9.828125 C-11 11 -11 11 -13 11 C-12.67 10.01 -12.34 9.02 -12 8 C-10.35 7.67 -8.7 7.34 -7 7 C-6.67 5.68 -6.34 4.36 -6 3 C-4.02 2.67 -2.04 2.34 0 2 C0 1.34 0 0.68 0 0 Z " fill="#3478D8" transform="translate(384,458)"/>
<path d="M0 0 C0.33 0.99 0.66 1.98 1 3 C1.66 3 2.32 3 3 3 C3 3.66 3 4.32 3 5 C1.68 5 0.36 5 -1 5 C-0.896875 5.886875 -0.79375 6.77375 -0.6875 7.6875 C-1.09498572 12.00684858 -2.7722703 13.25642975 -6 16 C-6 12.61122044 -5.06603205 10.19809616 -4 7 C-4 6.01 -4 5.02 -4 4 C-2 1.8125 -2 1.8125 0 0 Z " fill="#0C64F4" transform="translate(221,113)"/>
<path d="M0 0 C6.00477279 0.64916463 11.400781 2.85795003 17 5 C17 5.33 17 5.66 17 6 C10.01370081 6.50604984 5.79799884 6.0333905 0 2 C0 1.34 0 0.68 0 0 Z " fill="#5490E1" transform="translate(335,15)"/>
<path d="M0 0 C1.32 0 2.64 0 4 0 C2.61219205 3.89006773 0.7847773 6.96558708 -1.625 10.3125 C-2.25664062 11.19550781 -2.88828125 12.07851563 -3.5390625 12.98828125 C-4.02117187 13.65214844 -4.50328125 14.31601562 -5 15 C-5.33 13.68 -5.66 12.36 -6 11 C-5.34 11 -4.68 11 -4 11 C-4 9.68 -4 8.36 -4 7 C-3.34 7 -2.68 7 -2 7 C-2 6.01 -2 5.02 -2 4 C-1.34 4 -0.68 4 0 4 C0 2.68 0 1.36 0 0 Z " fill="#4C8ADC" transform="translate(460,380)"/>
<path d="M0 0 C1 3 1 3 -0.0390625 5.19140625 C-0.56242187 5.97386719 -1.08578125 6.75632812 -1.625 7.5625 C-2.13289063 8.34753906 -2.64078125 9.13257812 -3.1640625 9.94140625 C-5.27036234 12.30315097 -7.01302088 13.05701171 -10 14 C-7.20307439 8.72887096 -4.01764453 4.40601683 0 0 Z " fill="#4684DA" transform="translate(55,93)"/>
<path d="M0 0 C4.46127184 2.49831223 8.87011532 4.97813316 13 8 C13 8.66 13 9.32 13 10 C14.32 10.66 15.64 11.32 17 12 C16.01 12.33 15.02 12.66 14 13 C13.34 12.67 12.68 12.34 12 12 C12 11.34 12 10.68 12 10 C11.1028125 9.8453125 11.1028125 9.8453125 10.1875 9.6875 C7.69130983 8.90298309 6.74268135 7.90110692 5 6 C4.34 5.67 3.68 5.34 3 5 C3 4.34 3 3.68 3 3 C2.01 2.67 1.02 2.34 0 2 C0 1.34 0 0.68 0 0 Z " fill="#4D89D6" transform="translate(389,42)"/>
<path d="M0 0 C-3.2589055 2.17260367 -6.32149695 3.35021087 -10 4.6875 C-11.2375 5.14511719 -12.475 5.60273438 -13.75 6.07421875 C-17 7 -17 7 -20 6 C-14.39081353 1.38599178 -7.23439006 -0.57113606 0 0 Z " fill="#5085D7" transform="translate(349,480)"/>
<path d="M0 0 C2.58361518 -0.05407567 5.16609255 -0.093707 7.75 -0.125 C8.84441406 -0.15013672 8.84441406 -0.15013672 9.9609375 -0.17578125 C13.8044624 -0.21072239 16.74606772 -0.17499684 20 2 C13.16920852 3.18225237 6.87368733 2.74464946 0 2 C0 1.34 0 0.68 0 0 Z " fill="#3C7EDC" transform="translate(346,95)"/>
<path d="M0 0 C0.66 0 1.32 0 2 0 C0.86519837 3.40440489 0.07667038 3.95969657 -2.75 6 C-3.46671875 6.51820313 -4.1834375 7.03640625 -4.921875 7.5703125 C-7.22433691 9.15433705 -9.56396474 10.62973017 -12 12 C-12.33 11.01 -12.66 10.02 -13 9 C-11.68 9 -10.36 9 -9 9 C-9 8.34 -9 7.68 -9 7 C-8.34 7 -7.68 7 -7 7 C-7.33 5.68 -7.66 4.36 -8 3 C-5.36 2.67 -2.72 2.34 0 2 C0 1.34 0 0.68 0 0 Z " fill="#4F8ADA" transform="translate(410,440)"/>
<path d="M0 0 C0 0.66 0 1.32 0 2 C-2.46929798 4.25764387 -4.53982393 5.8287717 -7.6875 7 C-10.52346902 8.22636498 -10.76795505 9.27190048 -12 12 C-12.99 12.33 -13.98 12.66 -15 13 C-12.7865633 7.56701901 -6.24981386 0 0 0 Z " fill="#5D97DD" transform="translate(303,173)"/>
<path d="M0 0 C0.33 0.99 0.66 1.98 1 3 C1.66 3.33 2.32 3.66 3 4 C3 4.99 3 5.98 3 7 C3.66 7 4.32 7 5 7 C5.33 8.32 5.66 9.64 6 11 C5.34 11 4.68 11 4 11 C4 10.34 4 9.68 4 9 C3.34 9 2.68 9 2 9 C2 8.34 2 7.68 2 7 C1.401875 6.7525 0.80375 6.505 0.1875 6.25 C-2.28647521 4.83629988 -3.43370255 3.34944617 -5 1 C-3 0 -3 0 0 0 Z " fill="#5893E2" transform="translate(76,424)"/>
<path d="M0 0 C5.39371278 1.8925308 10.1083961 4.04465598 15 7 C10.99608513 8.60156595 7.92968808 7.4087561 4 6 C3.67 5.34 3.34 4.68 3 4 C2.01 3.67 1.02 3.34 0 3 C0 2.01 0 1.02 0 0 Z " fill="#3F7EDA" transform="translate(352,21)"/>
<path d="M0 0 C0.99 0 1.98 0 3 0 C3.50615298 1.26839526 4.00469099 2.53983102 4.5 3.8125 C4.91765625 4.87404297 4.91765625 4.87404297 5.34375 5.95703125 C6 8 6 8 6 11 C6.66 11 7.32 11 8 11 C8 12.65 8 14.3 8 16 C5.86555934 13.25214237 4.02037559 10.46859452 2.3125 7.4375 C1.65701172 6.29087891 1.65701172 6.29087891 0.98828125 5.12109375 C0 3 0 3 0 0 Z " fill="#548FDC" transform="translate(24,357)"/>
<path d="M0 0 C0.33 0 0.66 0 1 0 C1.06058594 0.63808594 1.12117187 1.27617187 1.18359375 1.93359375 C1.26738281 2.75988281 1.35117187 3.58617187 1.4375 4.4375 C1.51871094 5.26121094 1.59992187 6.08492188 1.68359375 6.93359375 C1.78930815 8.98662025 1.78930815 8.98662025 3 10 C3.07313567 12.53049402 3.09247527 15.03304837 3.0625 17.5625 C3.05798828 18.27341797 3.05347656 18.98433594 3.04882812 19.71679688 C3.03700864 21.47790013 3.01907263 23.23896036 3 25 C2.67 25 2.34 25 2 25 C0.62707087 16.6030674 -0.31274919 8.51372785 0 0 Z " fill="#689DDC" transform="translate(1,270)"/>
<path d="M0 0 C0.97165328 3.3829882 1.00611175 4.73961469 -0.6875 7.875 C-1.05746094 8.56335938 -1.42742188 9.25171875 -1.80859375 9.9609375 C-3.42710536 12.73098032 -5.16018011 15.37168587 -7 18 C-7.33 17.34 -7.66 16.68 -8 16 C-7.37915039 14.30419922 -7.37915039 14.30419922 -6.34765625 12.3046875 C-5.98349609 11.58925781 -5.61933594 10.87382812 -5.24414062 10.13671875 C-4.85419922 9.39035156 -4.46425781 8.64398438 -4.0625 7.875 C-3.67642578 7.12089844 -3.29035156 6.36679688 -2.89257812 5.58984375 C-1.93547868 3.72290903 -0.96863894 1.86097372 0 0 Z " fill="#6498DD" transform="translate(29,131)"/>
<path d="M0 0 C0.33 0 0.66 0 1 0 C1 1.98 1 3.96 1 6 C5.29 6 9.58 6 14 6 C14 6.33 14 6.66 14 7 C11.68853911 7.36088615 9.37579171 7.71354191 7.0625 8.0625 C5.77472656 8.25972656 4.48695313 8.45695312 3.16015625 8.66015625 C1.59587891 8.82837891 1.59587891 8.82837891 0 9 C-0.33 8.67 -0.66 8.34 -1 8 C-0.82364548 5.30917128 -0.38164079 2.67148554 0 0 Z " fill="#4E86D2" transform="translate(281,490)"/>
<path d="M0 0 C0.33 0 0.66 0 1 0 C2.30168453 8.16511208 3.44576815 15.75912154 2 24 C1.67 24 1.34 24 1 24 C-0.12513633 15.98340366 -0.09579384 8.07861415 0 0 Z " fill="#1360D2" transform="translate(1,255)"/>
<path d="M0 0 C0.33 0.66 0.66 1.32 1 2 C0.01 2 -0.98 2 -2 2 C-1.67 2.99 -1.34 3.98 -1 5 C-2.375 6.5 -2.375 6.5 -4 8 C-4.66 8 -5.32 8 -6 8 C-6.66 9.32 -7.32 10.64 -8 12 C-9 9 -9 9 -7.375 5.4375 C-5.42695386 2.20892004 -3.74249678 0.93562419 0 0 Z " fill="#0D64F0" transform="translate(298,178)"/>
<path d="M0 0 C0.66 0.33 1.32 0.66 2 1 C0.35 6.61 -1.3 12.22 -3 18 C-3.33 18 -3.66 18 -4 18 C-3.65226572 11.36906706 -3.03910346 5.946072 0 0 Z " fill="#5088D7" transform="translate(199,153)"/>
<path d="M0 0 C5.20112114 2.1772135 7.68090651 4.60708214 11 9 C9.35 9 7.7 9 6 9 C6 7.68 6 6.36 6 5 C3.03 4.505 3.03 4.505 0 4 C0 2.68 0 1.36 0 0 Z " fill="#4F8CDF" transform="translate(406,55)"/>
<path d="M0 0 C1.125 1.75 1.125 1.75 2 4 C1.07451225 6.69933926 0.57626463 7.71186768 -2 9 C-2.66 10.32 -3.32 11.64 -4 13 C-3.67 9.37 -3.34 5.74 -3 2 C-2.01 2 -1.02 2 0 2 C0 1.34 0 0.68 0 0 Z " fill="#327DE7" transform="translate(285,197)"/>
<path d="M0 0 C1.39073768 2.62890497 2.43969204 5.12122047 3.1875 8 C3.36667969 8.66 3.54585938 9.32 3.73046875 10 C4.04172874 12.30963935 3.81224607 13.82149032 3 16 C2.34 16.33 1.68 16.66 1 17 C0.1679418 11.27959989 -0.12036664 5.77759884 0 0 Z " fill="#538EE2" transform="translate(491,183)"/>
<path d="M0 0 C-0.33 0.66 -0.66 1.32 -1 2 C-6.61 2 -12.22 2 -18 2 C-18 1.67 -18 1.34 -18 1 C-15.56348622 0.63737003 -13.12623023 0.28461036 -10.6875 -0.0625 C-9.99720703 -0.16626953 -9.30691406 -0.27003906 -8.59570312 -0.37695312 C-5.30415164 -0.83808836 -3.19783876 -1.06594625 0 0 Z " fill="#1E6DDD" transform="translate(300,494)"/>
<path d="M0 0 C2 3 2 3 1.828125 5.375 C1.63734375 6.24125 1.4465625 7.1075 1.25 8 C1.06953125 8.86625 0.8890625 9.7325 0.703125 10.625 C0 13 0 13 -2 16 C-2.2358396 10.22192976 -1.86783046 5.48675196 0 0 Z " fill="#3E80DA" transform="translate(8,185)"/>
<path d="M0 0 C3.63559661 3.43361902 6.36113346 6.7973607 9 11 C7.68 11.33 6.36 11.66 5 12 C4.67 10.35 4.34 8.7 4 7 C3.01 6.67 2.02 6.34 1 6 C0.67 4.02 0.34 2.04 0 0 Z " fill="#4E86DE" transform="translate(439,86)"/>
<path d="M0 0 C0 0.66 0 1.32 0 2 C-0.99 2.33 -1.98 2.66 -3 3 C-4.35432675 4.31200404 -5.68733482 5.64631404 -7 7 C-10 9 -10 9 -12.1875 8.625 C-12.785625 8.41875 -13.38375 8.2125 -14 8 C-12.04532248 6.66101601 -10.0866421 5.32870953 -8.125 4 C-7.03445312 3.2575 -5.94390625 2.515 -4.8203125 1.75 C-2 0 -2 0 0 0 Z " fill="#6695DE" transform="translate(121,36)"/>
<path d="M0 0 C2.9375 0.75 2.9375 0.75 6 2 C6.875 4.125 6.875 4.125 7 6 C5.02 6.33 3.04 6.66 1 7 C0.67 4.69 0.34 2.38 0 0 Z " fill="#3378E6" transform="translate(367,29)"/>
<path d="M0 0 C0.66 0.33 1.32 0.66 2 1 C-1.07517084 11.55808656 -1.07517084 11.55808656 -3 16 C-3.33 16 -3.66 16 -4 16 C-3.67 12.7 -3.34 9.4 -3 6 C-2.34 6 -1.68 6 -1 6 C-0.67 4.02 -0.34 2.04 0 0 Z " fill="#578DDB" transform="translate(480,343)"/>
<path d="M0 0 C0.99 0.33 1.98 0.66 3 1 C1.85845641 2.83600745 0.71165684 4.66874805 -0.4375 6.5 C-1.07558594 7.5209375 -1.71367187 8.541875 -2.37109375 9.59375 C-2.90863281 10.3878125 -3.44617188 11.181875 -4 12 C-4.33 12 -4.66 12 -5 12 C-5 10.02 -5 8.04 -5 6 C-4.34 6 -3.68 6 -3 6 C-3 5.01 -3 4.02 -3 3 C-1.5 1.3125 -1.5 1.3125 0 0 Z " fill="#528CDB" transform="translate(212,129)"/>
<path d="M0 0 C0.99 0.33 1.98 0.66 3 1 C0.36 4.3 -2.28 7.6 -5 11 C-6.09658936 7.71023192 -5.79953138 6.28696233 -5 3 C-4.360625 2.87625 -3.72125 2.7525 -3.0625 2.625 C-2.0415625 2.315625 -2.0415625 2.315625 -1 2 C-0.67 1.34 -0.34 0.68 0 0 Z " fill="#4D85D9" transform="translate(445,403)"/>
<path d="M0 0 C1.55347992 4.14261313 0.88763731 7.76665282 0 12 C-2.05078125 13.2421875 -2.05078125 13.2421875 -4 14 C-3.00956295 9.16371695 -2.04301154 4.52381127 0 0 Z " fill="#5493E0" transform="translate(20,149)"/>
<path d="M0 0 C-2.11997834 1.19733988 -4.24513676 2.38298713 -6.375 3.5625 C-6.97828125 3.90474609 -7.5815625 4.24699219 -8.203125 4.59960938 C-9.76978241 5.46127095 -11.38290862 6.23718183 -13 7 C-13.66 6.67 -14.32 6.34 -15 6 C-13.62034266 3.24068532 -11.91419385 2.70578866 -9.1875 1.3125 C-7.87845703 0.62607422 -7.87845703 0.62607422 -6.54296875 -0.07421875 C-3.7921588 -1.07566569 -2.68514734 -1.03274898 0 0 Z " fill="#4D8AD5" transform="translate(369,471)"/>
<path d="M0 0 C4.03174806 0.27489191 5.56894631 0.53491576 8.375 3.5625 C8.91125 4.366875 9.4475 5.17125 10 6 C8.3125 6.75 8.3125 6.75 6 7 C2.7230706 4.86618551 1.24993996 3.74981988 0 0 Z " fill="#3A7BE0" transform="translate(99,448)"/>
<path d="M0 0 C0.33 1.32 0.66 2.64 1 4 C-2.75 7 -2.75 7 -5 7 C-5 7.66 -5 8.32 -5 9 C-6.32 9.33 -7.64 9.66 -9 10 C-9 9.34 -9 8.68 -9 8 C-8.34 8 -7.68 8 -7 8 C-7 7.34 -7 6.68 -7 6 C-6.34 6 -5.68 6 -5 6 C-5 5.34 -5 4.68 -5 4 C-3.37373596 2.61767557 -1.7074998 1.28062485 0 0 Z " fill="#5C92DC" transform="translate(85,61)"/>
<path d="M0 0 C-6.65594553 2.94397591 -12.75841435 3.64999003 -20 4 C-16.60664159 1.73776106 -13.97522368 1.16137589 -10 0.3125 C-8.14375 -0.09548828 -8.14375 -0.09548828 -6.25 -0.51171875 C-3 -1 -3 -1 0 0 Z " fill="#6CA1E0" transform="translate(205,5)"/>
<path d="M0 0 C0.66 0 1.32 0 2 0 C2 0.66 2 1.32 2 2 C2.66 2.33 3.32 2.66 4 3 C2.54550599 4.0055761 1.08627557 5.00430435 -0.375 6 C-1.59316406 6.8353125 -1.59316406 6.8353125 -2.8359375 7.6875 C-5 9 -5 9 -7 9 C-7 8.34 -7 7.68 -7 7 C-6.01 7 -5.02 7 -4 7 C-4 6.34 -4 5.68 -4 5 C-3.01 5 -2.02 5 -1 5 C-0.67 3.35 -0.34 1.7 0 0 Z " fill="#578EE1" transform="translate(394,450)"/>
<path d="M0 0 C2.875 1.125 2.875 1.125 6 3 C7.375 6.1875 7.375 6.1875 8 9 C7.01 9 6.02 9 5 9 C3.61328125 7.5390625 3.61328125 7.5390625 2.3125 5.625 C1.65701172 4.68527344 1.65701172 4.68527344 0.98828125 3.7265625 C0 2 0 2 0 0 Z " fill="#4383DA" transform="translate(41,387)"/>
<path d="M0 0 C2.97 0.33 5.94 0.66 9 1 C8.67 2.65 8.34 4.3 8 6 C5.125 5.25 5.125 5.25 2 4 C1.34 2.68 0.68 1.36 0 0 Z " fill="#2274E9" transform="translate(38,383)"/>
<path d="M0 0 C1 2 1 2 0.3515625 4.015625 C-1.38117296 6.55964122 -2.69957389 6.91416397 -5.625 7.75 C-6.85089844 8.11351562 -6.85089844 8.11351562 -8.1015625 8.484375 C-9.04128906 8.73960938 -9.04128906 8.73960938 -10 9 C-6.83047153 5.73991357 -3.60062011 2.77762123 0 0 Z " fill="#5F95E0" transform="translate(96,52)"/>
<path d="M0 0 C3 2 3 2 3.51171875 4.1640625 C3.56972656 4.97617187 3.62773437 5.78828125 3.6875 6.625 C3.75324219 7.44226563 3.81898437 8.25953125 3.88671875 9.1015625 C3.92410156 9.72804688 3.96148438 10.35453125 4 11 C2 10 2 10 1.1484375 7.93359375 C0.89320312 7.10988281 0.63796875 6.28617187 0.375 5.4375 C0.11460938 4.61121094 -0.14578125 3.78492188 -0.4140625 2.93359375 C-0.60742188 2.29550781 -0.80078125 1.65742188 -1 1 C-0.67 0.67 -0.34 0.34 0 0 Z " fill="#508EDF" transform="translate(20,346)"/>
<path d="M0 0 C0.99 0 1.98 0 3 0 C3.33 0.99 3.66 1.98 4 3 C3.34 3 2.68 3 2 3 C1.95101563 3.78246094 1.90203125 4.56492188 1.8515625 5.37109375 C1.77679688 6.38300781 1.70203125 7.39492188 1.625 8.4375 C1.55539062 9.44683594 1.48578125 10.45617187 1.4140625 11.49609375 C1.27742188 12.32238281 1.14078125 13.14867187 1 14 C0.01 14.495 0.01 14.495 -1 15 C-0.67 10.05 -0.34 5.1 0 0 Z " fill="#0C63E9" transform="translate(362,250)"/>
<path d="M0 0 C2.97 0.495 2.97 0.495 6 1 C2.25474201 4.74525799 -1.98270909 4.68909949 -7 5 C-4.64046906 2.64046906 -3.22104383 2.50858587 0 2 C0 1.34 0 0.68 0 0 Z " fill="#3A7FDE" transform="translate(243,103)"/>
<path d="M0 0 C4.875 4.625 4.875 4.625 6 8 C5.01 8.495 5.01 8.495 4 9 C3.67 8.34 3.34 7.68 3 7 C0.47266765 6.34444881 0.47266765 6.34444881 -2 6 C-2 5.34 -2 4.68 -2 4 C-1.34 4 -0.68 4 0 4 C0 2.68 0 1.36 0 0 Z " fill="#367BDF" transform="translate(448,97)"/>
<path d="M0 0 C-0.33 1.32 -0.66 2.64 -1 4 C-4.28696233 4.79953138 -5.71023192 5.09658936 -9 4 C-2.25 0 -2.25 0 0 0 Z " fill="#538BE3" transform="translate(135,28)"/>
<path d="M0 0 C0.33 0.66 0.66 1.32 1 2 C2.32 2 3.64 2 5 2 C4.67 4.97 4.34 7.94 4 11 C1.55160412 7.32740617 0 4.45351799 0 0 Z " fill="#5291E6" transform="translate(15,335)"/>
<path d="M0 0 C2.97 0 5.94 0 9 0 C9 0.99 9 1.98 9 3 C7.3125 3.6875 7.3125 3.6875 5 4 C2.25 2.625 2.25 2.625 0 1 C0 0.67 0 0.34 0 0 Z " fill="#3E82E2" transform="translate(126,467)"/>
<path d="M0 0 C0.66 0 1.32 0 2 0 C2.33 0.99 2.66 1.98 3 3 C2.00390625 4.82421875 2.00390625 4.82421875 0.5625 6.6875 C0.08941406 7.31011719 -0.38367188 7.93273437 -0.87109375 8.57421875 C-1.24363281 9.04472656 -1.61617188 9.51523437 -2 10 C-2.33 9.01 -2.66 8.02 -3 7 C-2.34 7 -1.68 7 -1 7 C-1.33 5.68 -1.66 4.36 -2 3 C-1.34 3 -0.68 3 0 3 C0 2.01 0 1.02 0 0 Z " fill="#4B86DE" transform="translate(451,393)"/>
<path d="M0 0 C0.33 0 0.66 0 1 0 C1.02705729 1.77074917 1.04642195 3.54161711 1.0625 5.3125 C1.07410156 6.29863281 1.08570313 7.28476562 1.09765625 8.30078125 C1 11 1 11 0 14 C-0.66 14 -1.32 14 -2 14 C-1.85795259 12.41632253 -1.71119847 10.83306682 -1.5625 9.25 C-1.48128906 8.36828125 -1.40007812 7.4865625 -1.31640625 6.578125 C-1.03761535 4.30649548 -0.61209423 2.20148177 0 0 Z " fill="#649DE5" transform="translate(359,261)"/>
<path d="M0 0 C0.6875 1.625 0.6875 1.625 1 4 C-0.4375 7.25 -0.4375 7.25 -2 10 C-2.66 10 -3.32 10 -4 10 C-2.99806563 6.20696275 -2.18975773 3.28463659 0 0 Z " fill="#3B84DE" transform="translate(44,107)"/>
<path d="M0 0 C-5.5 4 -5.5 4 -10 4 C-10 3.01 -10 2.02 -10 1 C-8.71073008 0.63720544 -7.41846728 0.28503302 -6.125 -0.0625 C-5.40570313 -0.25972656 -4.68640625 -0.45695312 -3.9453125 -0.66015625 C-2 -1 -2 -1 0 0 Z " fill="#5C8EDB" transform="translate(242,108)"/>
<path d="M0 0 C0.93423645 3.01031744 1.04449911 3.86650268 0 7 C-1.65 7.33 -3.3 7.66 -5 8 C-3.62845496 5.04590299 -2.01136276 2.55991624 0 0 Z " fill="#4C8DE2" transform="translate(61,85)"/>
<path d="M0 0 C0.99 0.33 1.98 0.66 3 1 C3 4.3 3 7.6 3 11 C0.60236815 8.60236815 0.65719414 7.66726502 0.375 4.375 C0.30023438 3.55773437 0.22546875 2.74046875 0.1484375 1.8984375 C0.09945313 1.27195312 0.05046875 0.64546875 0 0 Z " fill="#3D7DE2" transform="translate(12,323)"/>
<path d="M0 0 C0.66 0.33 1.32 0.66 2 1 C1.01 4.96 0.02 8.92 -1 13 C-1.33 13 -1.66 13 -2 13 C-2.19294408 8.17639811 -1.75747614 4.50353262 0 0 Z " fill="#528AD5" transform="translate(489,317)"/>
<path d="M0 0 C1.98 0 3.96 0 6 0 C4.35 1.98 2.7 3.96 1 6 C0.67 5.34 0.34 4.68 0 4 C-0.66 3.67 -1.32 3.34 -2 3 C-1.34 2.67 -0.68 2.34 0 2 C0 1.34 0 0.68 0 0 Z " fill="#4A8AE0" transform="translate(429,419)"/>
<path d="M0 0 C2.475 0.99 2.475 0.99 5 2 C5 3.65 5 5.3 5 7 C5.66 7.33 6.32 7.66 7 8 C6.34 8.66 5.68 9.32 5 10 C3.35 6.7 1.7 3.4 0 0 Z " fill="#4E8DDE" transform="translate(32,373)"/>
<path d="M0 0 C2.50298434 2.93828597 3.46930939 5.17902761 4 9 C2.35 8.67 0.7 8.34 -1 8 C-0.67 5.36 -0.34 2.72 0 0 Z " fill="#4781DF" transform="translate(476,142)"/>
<path d="M0 0 C0 1.32 0 2.64 0 4 C-2.375 4.625 -2.375 4.625 -5 5 C-5.66 4.34 -6.32 3.68 -7 3 C-3.375 0 -3.375 0 0 0 Z " fill="#2C75E6" transform="translate(69,81)"/>
<path d="M0 0 C3.63 0.33 7.26 0.66 11 1 C11.33 1.99 11.66 2.98 12 4 C10.3733152 3.71788123 8.74867104 3.42397625 7.125 3.125 C5.76761719 2.88136719 5.76761719 2.88136719 4.3828125 2.6328125 C2 2 2 2 0 0 Z " fill="#6B99DB" transform="translate(178,489)"/>
<path d="M0 0 C0.99 0.33 1.98 0.66 3 1 C2 4 2 4 0 5 C-2.3329866 5.04022391 -4.66706666 5.04320247 -7 5 C-3.25 3 -3.25 3 -1 3 C-0.67 2.01 -0.34 1.02 0 0 Z " fill="#1B68DE" transform="translate(328,483)"/>
<path d="M0 0 C0.99 0 1.98 0 3 0 C3 0.66 3 1.32 3 2 C-3.75 6 -3.75 6 -6 6 C-5.67 5.01 -5.34 4.02 -5 3 C-3.35 2.67 -1.7 2.34 0 2 C0 1.34 0 0.68 0 0 Z " fill="#5A90D6" transform="translate(377,463)"/>
<path d="M0 0 C0.33 0 0.66 0 1 0 C1.33 3.63 1.66 7.26 2 11 C-1 8 -1 8 -1.25 4.9375 C-1 2 -1 2 0 0 Z " fill="#5893E4" transform="translate(497,210)"/>
<path d="M0 0 C2.18975773 3.28463659 2.99806563 6.20696275 4 10 C2.68 9.34 1.36 8.68 0 8 C0 5.36 0 2.72 0 0 Z " fill="#679AE1" transform="translate(480,151)"/>
<path d="M0 0 C0.66 0.33 1.32 0.66 2 1 C-1.32307692 5.8 -1.32307692 5.8 -4.75 6.8125 C-5.4925 6.874375 -6.235 6.93625 -7 7 C-4.66666667 4.66666667 -2.33333333 2.33333333 0 0 Z " fill="#609BE1" transform="translate(105,45)"/>
<path d="M0 0 C1.98 0 3.96 0 6 0 C4.02579865 2.52259061 3.03254358 2.9929808 -0.1875 3.6875 C-1.5796875 3.8421875 -1.5796875 3.8421875 -3 4 C-2.67 3.34 -2.34 2.68 -2 2 C-1.34 2 -0.68 2 0 2 C0 1.34 0 0.68 0 0 Z " fill="#1064E2" transform="translate(160,17)"/>
<path d="M0 0 C-3.28463659 2.18975773 -6.20696275 2.99806563 -10 4 C-10.33 3.34 -10.66 2.68 -11 2 C-7.17010894 0.19769832 -4.21878192 -0.19622241 0 0 Z " fill="#6192DA" transform="translate(349,480)"/>
<path d="M0 0 C0.66 1.32 1.32 2.64 2 4 C0.68 4.99 -0.64 5.98 -2 7 C-2.66 6.67 -3.32 6.34 -4 6 C-2.68 4.02 -1.36 2.04 0 0 Z " fill="#4F8FE2" transform="translate(49,100)"/>
<path d="M0 0 C2.97 0.495 2.97 0.495 6 1 C6.33 2.65 6.66 4.3 7 6 C3.63279613 4.60667426 2.0140476 3.0210714 0 0 Z " fill="#5B93DE" transform="translate(83,436)"/>
<path d="M0 0 C0.66 0.33 1.32 0.66 2 1 C2 3.31 2 5.62 2 8 C1.01 8 0.02 8 -1 8 C-0.67 5.36 -0.34 2.72 0 0 Z " fill="#1465EA" transform="translate(497,220)"/>
<path d="M0 0 C0.99 0.99 1.98 1.98 3 3 C1.02 5.97 1.02 5.97 -1 9 C-1.66 8.34 -2.32 7.68 -3 7 C-2.34 6.34 -1.68 5.68 -1 5 C-0.35232207 2.42938689 -0.35232207 2.42938689 0 0 Z " fill="#4080E0" transform="translate(217,120)"/>
<path d="M0 0 C-0.33 1.32 -0.66 2.64 -1 4 C-2.65 4.33 -4.3 4.66 -6 5 C-6 4.34 -6 3.68 -6 3 C-2.53846154 0 -2.53846154 0 0 0 Z " fill="#0965EC" transform="translate(310,488)"/>
<path d="M0 0 C4.875 2.75 4.875 2.75 6 5 C3.03 4.505 3.03 4.505 0 4 C-0.33 3.01 -0.66 2.02 -1 1 C-0.67 0.67 -0.34 0.34 0 0 Z " fill="#1365E1" transform="translate(82,432)"/>
<path d="M0 0 C0.66 0 1.32 0 2 0 C2 0.66 2 1.32 2 2 C2.99 2 3.98 2 5 2 C4.625 3.9375 4.625 3.9375 4 6 C3.01 6.495 3.01 6.495 2 7 C1.34 4.69 0.68 2.38 0 0 Z " fill="#2872E2" transform="translate(424,421)"/>
<path d="M0 0 C1.65 0 3.3 0 5 0 C5 0.66 5 1.32 5 2 C4.34 2 3.68 2 3 2 C3 2.66 3 3.32 3 4 C2.01 4.33 1.02 4.66 0 5 C0 3.35 0 1.7 0 0 Z " fill="#4E88DD" transform="translate(220,118)"/>
<path d="M0 0 C5.53846154 0.61538462 5.53846154 0.61538462 7.875 2.5625 C8.431875 3.2740625 8.431875 3.2740625 9 4 C8.01 4.33 7.02 4.66 6 5 C6 4.34 6 3.68 6 3 C5.195625 2.87625 4.39125 2.7525 3.5625 2.625 C2.716875 2.41875 1.87125 2.2125 1 2 C0.67 1.34 0.34 0.68 0 0 Z " fill="#3D79D8" transform="translate(380,38)"/>
<path d="M0 0 C-0.33 0.99 -0.66 1.98 -1 3 C-4.3 2.67 -7.6 2.34 -11 2 C-11 1.67 -11 1.34 -11 1 C-7.27569643 0.30710631 -3.78916254 -0.11144596 0 0 Z " fill="#357DEB" transform="translate(287,2)"/>
</svg>
